<svg viewBox="-18 -18 466 370" width="466" height="370" xmlns="http://www.w3.org/2000/svg"><style>
    .shape { fill: #ffffff; stroke: #26312d; stroke-width: 2; }
    .node-label { font: 700 14px ui-sans-serif, system-ui, -apple-system, BlinkMacSystemFont, "Segoe UI", sans-serif; fill: #1e2724; pointer-events: none; }
    .leg-label { font: 11px ui-sans-serif, system-ui, -apple-system, BlinkMacSystemFont, "Segoe UI", sans-serif; fill: #52605a; pointer-events: none; }
    .edge { fill: none; stroke: #2d6cdf; stroke-width: 2.5; }
    .path { fill: none; stroke: #111111; stroke-width: 2; }
    .leg-dot { fill: #16846f; stroke: #ffffff; stroke-width: 2; }
    .plot-frame, .plot-box { fill: none; stroke: #26312d; stroke-width: 1.8; }
    .plot-axis { stroke: #26312d; stroke-width: 1.8; }
    .plot-tick { stroke: #26312d; stroke-width: 1.3; }
    .plot-grid { stroke: #d8ded8; stroke-width: 1; }
    .plot-line, .plot-curve { fill: none; stroke: #2563eb; stroke-width: 2; }
    .plot-line-marker { fill: #ffffff; stroke: #2563eb; stroke-width: 2; }
    .plot-axis-label, .plot-tick-label, .plot-label { font-family: ui-sans-serif, system-ui, -apple-system, BlinkMacSystemFont, "Segoe UI", sans-serif; fill: #1e2724; }
  </style><defs><clipPath id="graphsx-plot-clip-1"><rect x="46" y="30" width="346" height="260"></rect></clipPath></defs><g class="plot-frame-layer"><rect class="plot-frame" x="0" y="0" width="430" height="330" fill="none" stroke="#cbd5d0" stroke-width="1"></rect></g><g class="plot-axes"><rect class="plot-box" x="46" y="30" width="346" height="260" fill="none" stroke="#26312d" stroke-width="1.5"></rect><line class="plot-axis plot-axis-x" stroke="#26312d" stroke-width="1.5" x1="46" y1="290" x2="392" y2="290"></line><line class="plot-grid plot-grid-x" stroke="#d8ded8" stroke-width="1" x1="74.83333333333333" y1="30" x2="74.83333333333333" y2="290"></line><line class="plot-tick plot-tick-x" stroke="#26312d" stroke-width="1" x1="74.83333333333333" y1="290" x2="74.83333333333333" y2="296"></line><text class="plot-tick-label" fill="#111111" font-size="12" font-family="ui-sans-serif, system-ui, sans-serif" x="74.83333333333333" y="304" text-anchor="middle" dominant-baseline="hanging">-15</text><line class="plot-grid plot-grid-x" stroke="#d8ded8" stroke-width="1" x1="122.88888888888889" y1="30" x2="122.88888888888889" y2="290"></line><line class="plot-tick plot-tick-x" stroke="#26312d" stroke-width="1" x1="122.88888888888889" y1="290" x2="122.88888888888889" y2="296"></line><text class="plot-tick-label" fill="#111111" font-size="12" font-family="ui-sans-serif, system-ui, sans-serif" x="122.88888888888889" y="304" text-anchor="middle" dominant-baseline="hanging">-10</text><line class="plot-grid plot-grid-x" stroke="#d8ded8" stroke-width="1" x1="170.94444444444446" y1="30" x2="170.94444444444446" y2="290"></line><line class="plot-tick plot-tick-x" stroke="#26312d" stroke-width="1" x1="170.94444444444446" y1="290" x2="170.94444444444446" y2="296"></line><text class="plot-tick-label" fill="#111111" font-size="12" font-family="ui-sans-serif, system-ui, sans-serif" x="170.94444444444446" y="304" text-anchor="middle" dominant-baseline="hanging">-5</text><line class="plot-grid plot-grid-x" stroke="#d8ded8" stroke-width="1" x1="219" y1="30" x2="219" y2="290"></line><line class="plot-tick plot-tick-x" stroke="#26312d" stroke-width="1" x1="219" y1="290" x2="219" y2="296"></line><text class="plot-tick-label" fill="#111111" font-size="12" font-family="ui-sans-serif, system-ui, sans-serif" x="219" y="304" text-anchor="middle" dominant-baseline="hanging">0</text><line class="plot-grid plot-grid-x" stroke="#d8ded8" stroke-width="1" x1="267.05555555555554" y1="30" x2="267.05555555555554" y2="290"></line><line class="plot-tick plot-tick-x" stroke="#26312d" stroke-width="1" x1="267.05555555555554" y1="290" x2="267.05555555555554" y2="296"></line><text class="plot-tick-label" fill="#111111" font-size="12" font-family="ui-sans-serif, system-ui, sans-serif" x="267.05555555555554" y="304" text-anchor="middle" dominant-baseline="hanging">5</text><line class="plot-grid plot-grid-x" stroke="#d8ded8" stroke-width="1" x1="315.11111111111114" y1="30" x2="315.11111111111114" y2="290"></line><line class="plot-tick plot-tick-x" stroke="#26312d" stroke-width="1" x1="315.11111111111114" y1="290" x2="315.11111111111114" y2="296"></line><text class="plot-tick-label" fill="#111111" font-size="12" font-family="ui-sans-serif, system-ui, sans-serif" x="315.11111111111114" y="304" text-anchor="middle" dominant-baseline="hanging">10</text><line class="plot-grid plot-grid-x" stroke="#d8ded8" stroke-width="1" x1="363.16666666666663" y1="30" x2="363.16666666666663" y2="290"></line><line class="plot-tick plot-tick-x" stroke="#26312d" stroke-width="1" x1="363.16666666666663" y1="290" x2="363.16666666666663" y2="296"></line><text class="plot-tick-label" fill="#111111" font-size="12" font-family="ui-sans-serif, system-ui, sans-serif" x="363.16666666666663" y="304" text-anchor="middle" dominant-baseline="hanging">15</text><text class="plot-axis-label" fill="#111111" font-size="12" font-family="ui-sans-serif, system-ui, sans-serif" x="219" y="330" text-anchor="middle">x</text><line class="plot-axis plot-axis-y" stroke="#26312d" stroke-width="1.5" x1="46" y1="30" x2="46" y2="290"></line><line class="plot-grid plot-grid-y" stroke="#d8ded8" stroke-width="1" x1="46" y1="265.625" x2="392" y2="265.625"></line><line class="plot-tick plot-tick-y" stroke="#26312d" stroke-width="1" x1="46" y1="265.625" x2="40" y2="265.625"></line><text class="plot-tick-label" fill="#111111" font-size="12" font-family="ui-sans-serif, system-ui, sans-serif" x="32" y="265.625" text-anchor="end" dominant-baseline="middle">-15</text><line class="plot-grid plot-grid-y" stroke="#d8ded8" stroke-width="1" x1="46" y1="225" x2="392" y2="225"></line><line class="plot-tick plot-tick-y" stroke="#26312d" stroke-width="1" x1="46" y1="225" x2="40" y2="225"></line><text class="plot-tick-label" fill="#111111" font-size="12" font-family="ui-sans-serif, system-ui, sans-serif" x="32" y="225" text-anchor="end" dominant-baseline="middle">-10</text><line class="plot-grid plot-grid-y" stroke="#d8ded8" stroke-width="1" x1="46" y1="184.375" x2="392" y2="184.375"></line><line class="plot-tick plot-tick-y" stroke="#26312d" stroke-width="1" x1="46" y1="184.375" x2="40" y2="184.375"></line><text class="plot-tick-label" fill="#111111" font-size="12" font-family="ui-sans-serif, system-ui, sans-serif" x="32" y="184.375" text-anchor="end" dominant-baseline="middle">-5</text><line class="plot-grid plot-grid-y" stroke="#d8ded8" stroke-width="1" x1="46" y1="143.75" x2="392" y2="143.75"></line><line class="plot-tick plot-tick-y" stroke="#26312d" stroke-width="1" x1="46" y1="143.75" x2="40" y2="143.75"></line><text class="plot-tick-label" fill="#111111" font-size="12" font-family="ui-sans-serif, system-ui, sans-serif" x="32" y="143.75" text-anchor="end" dominant-baseline="middle">0</text><line class="plot-grid plot-grid-y" stroke="#d8ded8" stroke-width="1" x1="46" y1="103.125" x2="392" y2="103.125"></line><line class="plot-tick plot-tick-y" stroke="#26312d" stroke-width="1" x1="46" y1="103.125" x2="40" y2="103.125"></line><text class="plot-tick-label" fill="#111111" font-size="12" font-family="ui-sans-serif, system-ui, sans-serif" x="32" y="103.125" text-anchor="end" dominant-baseline="middle">5</text><line class="plot-grid plot-grid-y" stroke="#d8ded8" stroke-width="1" x1="46" y1="62.5" x2="392" y2="62.5"></line><line class="plot-tick plot-tick-y" stroke="#26312d" stroke-width="1" x1="46" y1="62.5" x2="40" y2="62.5"></line><text class="plot-tick-label" fill="#111111" font-size="12" font-family="ui-sans-serif, system-ui, sans-serif" x="32" y="62.5" text-anchor="end" dominant-baseline="middle">10</text><text class="plot-axis-label" fill="#111111" font-size="12" font-family="ui-sans-serif, system-ui, sans-serif" x="6" y="160" text-anchor="middle" transform="rotate(-90 6 160)">y</text></g><g class="plot-data" clip-path="url(#graphsx-plot-clip-1)"><g class="plot-line"><path class="plot-line" fill="none" stroke="#e11d48" stroke-width="2.6" d="M 219 103.125 L 219.00082429624882 103.0739945095811 L 219.00659134058247 102.92116279870797 L 219.0222287430902 102.66705846489674 L 219.05263388005736 102.31260189474642 L 219.10265888241665 101.85907686002446 L 219.17709575029565 101.30812577209542 L 219.2806616351535 100.66174361449453 L 219.4179843305328 99.92227057895204 L 219.5935880118811 99.09238343556692 L 219.81187926520576 98.17508567308107 L 220.0771334435311 97.17369645029814 L 220.39348138922054 96.09183840460037 L 220.7648965592183 94.9334243682172 L 221.1951825891518 93.70264304737978 L 221.68796133102575 92.40394372371955 L 222.24666139793163 91.04202004123789 L 222.87450724779669 89.62179294585138 L 223.5745088367093 88.14839284790222 L 224.3494518707856 86.62714108108895 L 225.20188868388945 85.06353073401615 L 226.13412976679197 83.46320693296249 L 227.14823597155788 81.83194665651979 L 228.2460114130811 80.17563816445193 L 229.4289970877709 78.50026012445082 L 230.69846522740676 76.81186052143002 L 232.05541440415348 75.1165354345799 L 233.5005654006527 73.42040776762323 L 235.03435785699628 71.72960601754374 L 236.6569477042417 70.05024316652228 L 238.3682053919578 68.38839578090872 L 240.16771491509795 66.75008339978183 L 242.0547736432899 65.14124829401788 L 244.0283929534167 63.56773567480576 L 246.08729966414376 62.03527442822303 L 248.2299382688347 60.54945844983601 L 250.45447396109122 59.11572865031789 L 252.75879644496558 57.739355699811995 L 255.14052451972472 56.42542357521086 L 257.59701142690756 55.178813970699565 L 260.1253509453103 54.004191627840356 L 262.72238421746727 52.905990637169225 L 265.3847072891758 51.88840175876385 L 268.1086793416414 50.95536080453911 L 270.89043159390553 50.110538120156036 L 273.7258768513672 49.35732919941901 L 276.6107196744195 48.69884645890113 L 279.54046713951357 48.137912195309525 L 282.5104401633164 47.677052742799674 L 285.51578535907845 47.31849384210037 L 288.5514873928489 47.06415722793932 L 291.6123818057959 46.91565843588961 L 294.69316826759626 46.87430582441692 L 297.7884242246673 46.94110080261589 L 300.89261890591627 47.11673924890911 L 304.00012764769275 47.40161410086807 L 307.10524649874367 47.795819091320084 L 310.20220706519024 48.29915360106159 L 313.2851915548798 48.91112859381238 L 316.3483479799095 49.630973594556934 L 319.3858054756741 50.45764466813023 L 322.39168969446445 51.3898333508493 L 325.3601382314294 52.42597648417603 L 328.28531604061845 53.564266895843645 L 331.1614307988419 54.802664870602825 L 333.9827481752231 56.13891034975555 L 336.7436069645696 57.570535795960154 L 339.43843404305744 59.094879657420734 L 342.0617591052064 60.70910036352436 L 344.60822914171916 62.410190782273304 L 347.0726226184631 64.19499306847811 L 349.4498633176914 66.06021383063876 L 351.7350338035224 68.00243954374614 L 353.92338847472394 70.01815213488982 L 356.01036616898017 72.10374466855157 L 357.9916022840468 74.25553705880958 L 359.86294038252305 76.46979173635481 L 361.62044324838683 78.7427291992403 L 363.2604033649394 81.07054337762557 L 364.77935278539655 83.44941674444215 L 366.1740723690254 85.87553510588089 L 367.44160035747086 88.34510200787133 L 368.5792402677218 90.85435269728148 L 369.58456808004775 93.39956757939768 L 370.4554387011673 95.97708511632646 L 371.18999168490194 98.58331411429035 L 371.78665619460594 101.21474535133476 L 372.2441551937472 103.86796250071899 L 372.56150885312917 106.53965230919954 L 372.73803716539874 109.22661399351776 L 372.77336175965996 111.92576782264885 L 372.6674069112105 114.63416285773675 L 372.4203997436274 117.3489838261082 L 372.0328696226479 120.06755711030334 L 371.5056467435097 122.78735583766249 L 370.83985991562906 125.50600406063919 L 370.0369335507023 128.22128002265308 L 369.09858386249914 130.93111850892305 L 368.02681428878657 133.63361228631356 L 366.8239101479516 136.32701264076002 L 365.4924325449986 139.00972902529122 L 364.0352115436525 141.68032783601754 L 362.45533862331865 144.3375303376803 L 360.75615844160757 146.98020976444272 L 358.9412599250467 149.60738762552194 L 357.0144667124348 152.21822924900542 L 354.97982697708136 154.81203860073242 L 352.8416026558702 157.388252418451 L 350.6042581147154 159.94643370455572 L 348.27244828152544 162.4862646235623 L 345.85100627924885 165.00753885307103 L 343.3449305929446 167.5101534392952 L 340.7593718060998 169.9941002102778 L 338.0996189425937 172.4594568016788 L 335.3710854517881 174.90637735147985 L 332.57929487520084 177.33508292111634 L 329.7298662340864 179.74585170140813 L 326.8284991780132 182.1390090622101 L 323.8809589351744 184.51491750495074 L 320.89306110571346 186.87396657716027 L 317.8706563397648 189.21656280772362 L 314.81961494222486 191.54311972092157 L 311.7458114464641 193.85404798635358 L 308.65510919926356 196.14974576058086 L 305.5533449992299 198.43058927478322 L 302.44631383077984 200.69692372091384 L 299.33975373552244 202.94905448675593 L 296.2393308624752 205.1872387879623 L 293.15062473805745 207.41167774259273 L 290.07911379618486 209.62250893088122 L 287.03016120807087 211.81979947996905 L 284.00900105050687 214.00353971015795 L 281.02072485045164 216.17363737588119 L 278.0702685427204 218.3299125310757 L 275.1623998764158 220.47209304499407 L 272.30170630450334 222.59981079072605 L 269.49258338959316 224.71259852484258 L 266.7392237575643 226.80988747263314 L 264.045606629148 228.89100562941897 L 261.4154879579935 230.955176784394 L 258.8523912020557 233.00152026940813 L 256.3595987533994 235.02905143107384 L 253.94014404969076 237.0366828205744 L 251.5968043887627 239.02322609160024 L 249.33209446570115 240.98739459295402 L 247.14826064989742 242.92780663857684 L 245.04727601747317 244.8429894340609 L 243.03083615239197 246.7313836351646 L 241.10035572745377 248.5913485104351 L 239.25696587420873 250.42116767680545 L 237.50151234865328 252.21905537396742 L 235.8345544973692 253.98316324046027 L 234.25636502655905 255.71158755175838 L 232.76693057421267 257.4023768782123 L 231.36595308342166 259.05354011850403 L 230.0528519726489 260.66305486232886 L 228.82676709655584 262.22887603433 L 227.68656248881314 263.7489447698824 L 226.63083087615485 265.22119747217437 L 225.6578989508146 266.64357499915525 L 224.765833386381 268.01403192832595 L 223.9524475800648 269.33054584703564 L 223.2153091023591 270.5911266159235 L 222.5517478331249 271.79382555340067 L 221.95886476123894 272.93674448960815 L 221.43354142310795 274.0180446391048 L 220.9724499535921 275.03595524263227 L 220.5720637211883 275.988781929664 L 220.22866851771334 276.8749147550652 L 219.9383742711946 277.6928358650621 L 219.6971272492335 278.4411267498297 L 219.50072271875305 279.11847504234925 L 219.34481802678033 279.7236808257408 L 219.22494606575415 280.25566241403976 L 219.13652908578604 280.71346157432777 L 219.07489281534527 281.0962481612512 L 219.03528085098873 281.4033241382314 L 219.0128692760115 281.6341269630812 L 219.00278146726484 281.7882323192723 L 219.00010304886766 281.86535617772876 L 218.99989695113234 281.86535617772876 L 218.99721853273516 281.7882323192723 L 218.98713072398849 281.6341269630812 L 218.96471914901127 281.4033241382314 L 218.92510718465473 281.09624816125125 L 218.86347091421396 280.71346157432777 L 218.77505393424585 280.2556624140398 L 218.65518197321967 279.7236808257408 L 218.499277281247 279.11847504234925 L 218.30287275076654 278.4411267498298 L 218.0616257288054 277.6928358650621 L 217.77133148228666 276.8749147550652 L 217.4279362788117 275.988781929664 L 217.02755004640795 275.0359552426323 L 216.56645857689207 274.01804463910486 L 216.04113523876111 272.9367444896082 L 215.4482521668751 271.7938255534007 L 214.78469089764096 270.5911266159236 L 214.04755241993522 269.3305458470357 L 213.23416661361904 268.014031928326 L 212.34210104918543 266.6435749991553 L 211.36916912384518 265.22119747217437 L 210.31343751118695 263.7489447698824 L 209.1732329034442 262.2288760343301 L 207.9471480273512 260.663054862329 L 206.63404691657834 259.0535401185041 L 205.23306942578742 257.4023768782124 L 203.74363497344103 255.71158755175847 L 202.16544550263092 253.98316324046039 L 200.4984876513468 252.21905537396748 L 198.74303412579135 250.4211676768055 L 196.89964427254628 248.59134851043518 L 194.9691638476081 246.7313836351647 L 192.95272398252692 244.84298943406102 L 190.85173935010266 242.92780663857693 L 188.66790553429902 240.98739459295416 L 186.40319561123738 239.02322609160032 L 184.05985595030938 237.03668282057453 L 181.6404012466007 235.02905143107387 L 179.14760879794449 233.00152026940825 L 176.5845120420066 230.9551767843941 L 173.95439337085213 228.89100562941906 L 171.26077624243587 226.80988747263322 L 168.50741661040695 224.7125985248427 L 165.69829369549683 222.59981079072614 L 162.83760012358434 220.47209304499418 L 159.92973145727976 218.32991253107585 L 156.97927514954847 216.17363737588127 L 153.9909989494933 214.0035397101581 L 150.9698387919293 211.81979947996913 L 147.92088620381531 209.62250893088137 L 144.84937526194275 207.41167774259287 L 141.7606691375249 205.18723878796231 L 138.66024626447773 202.94905448675598 L 135.55368616922027 200.69692372091396 L 132.44665500077028 198.43058927478336 L 129.3448908007366 196.14974576058103 L 126.25418855353605 193.8540479863537 L 123.18038505777527 191.54311972092165 L 120.12934366023542 189.21656280772376 L 117.10693889428669 186.87396657716045 L 114.11904106482568 184.51491750495086 L 111.17150082198692 182.13900906221022 L 108.27013376591366 179.7458517014082 L 105.42070512479935 177.3350829211165 L 102.628914548212 174.90637735147993 L 99.90038105740643 172.45945680167893 L 97.2406281939003 169.9941002102779 L 94.65506940705552 167.51015343929535 L 92.14899372075128 165.0075388530712 L 89.72755171847464 162.48626462356236 L 87.39574188528476 159.94643370455583 L 85.15839734412991 157.38825241845112 L 83.02017302291875 154.8120386007326 L 80.98553328756529 152.2182292490055 L 79.05874007495336 149.60738762552205 L 77.24384155839249 146.98020976444283 L 75.54466137668152 144.3375303376805 L 73.96478845634756 141.68032783601774 L 72.50756745500148 139.00972902529128 L 71.17608985204842 136.32701264076013 L 69.97318571121349 133.63361228631368 L 68.90141613750095 130.93111850892322 L 67.9630664492978 128.22128002265313 L 67.16014008437094 125.5060040606393 L 66.49435325649034 122.78735583766263 L 65.96713037735212 120.06755711030351 L 65.57960025637266 117.3489838261084 L 65.33259308878951 114.63416285773684 L 65.22663824034004 111.92576782264896 L 65.26196283460129 109.22661399351787 L 65.4384911468708 106.53965230919971 L 65.75584480625281 103.86796250071907 L 66.21334380539408 101.21474535133487 L 66.81000831509805 98.58331411429046 L 67.54456129883262 95.97708511632663 L 68.41543191995227 93.39956757939774 L 69.42075973227824 90.85435269728157 L 70.55839964252911 88.34510200787147 L 71.82592763097449 85.87553510588108 L 73.22064721460336 83.44941674444229 L 74.73959663506055 81.07054337762563 L 76.37955675161318 78.74272919924042 L 78.13705961747687 76.46979173635489 L 80.00839771595314 74.2555370588097 L 81.98963383101977 72.10374466855163 L 84.07661152527598 70.01815213488987 L 86.26496619647749 68.00243954374628 L 88.55013668230845 66.06021383063887 L 90.92737738153679 64.19499306847828 L 93.39177085828078 62.41019078227336 L 95.93824089479347 60.70910036352441 L 98.56156595694242 59.09487965742079 L 101.25639303543022 57.57053579596024 L 104.01725182477686 56.138910349755605 L 106.83856920115804 54.80266487060288 L 109.71468395938142 53.5642668958437 L 112.63986176857041 52.42597648417609 L 115.6083103055355 51.38983335084933 L 118.6141945243258 50.45764466813023 L 121.65165202009034 49.63097359455699 L 124.71480844512004 48.911128593812435 L 127.79779293480958 48.29915360106162 L 130.89475350125622 47.795819091320084 L 133.99987235230716 47.40161410086807 L 137.10738109408362 47.11673924890911 L 140.21157577533248 46.94110080261589 L 143.30683173240368 46.87430582441689 L 146.38761819420398 46.915658435889554 L 149.44851260715092 47.06415722793932 L 152.48421464092138 47.31849384210037 L 155.4895598366834 47.67705274279962 L 158.45953286048632 48.13791219530947 L 161.38928032558033 48.69884645890113 L 164.27412314863267 49.357329199418956 L 167.10956840609418 50.11053812015598 L 169.89132065835855 50.955360804539055 L 172.6152927108241 51.88840175876382 L 175.2776157825326 52.90599063716914 L 177.87464905468954 54.00419162784027 L 180.40298857309224 55.17881397069948 L 182.85947548027522 56.42542357521077 L 185.24120355503428 57.739355699811966 L 187.5455260389086 59.11572865031778 L 189.77006173116516 60.549458449835896 L 191.9127003358562 62.035274428223005 L 193.97160704658324 63.56773567480565 L 195.94522635670998 65.14124829401783 L 197.83228508490197 66.75008339978177 L 199.63179460804216 68.3883957809087 L 201.3430522957582 70.0502431665222 L 202.96564214300363 71.72960601754369 L 204.49943459934724 73.42040776762315 L 205.94458559584643 75.11653543457979 L 207.3015347725932 76.81186052142994 L 208.5710029122291 78.50026012445076 L 209.75398858691884 80.17563816445181 L 210.85176402844206 81.83194665651968 L 211.86587023320797 83.46320693296246 L 212.79811131611052 85.06353073401607 L 213.65054812921437 86.6271410810889 L 214.42549116329062 88.14839284790213 L 215.12549275220326 89.6217929458513 L 215.75333860206834 91.04202004123786 L 216.31203866897422 92.4039437237195 L 216.80481741084816 93.70264304737972 L 217.23510344078164 94.93342436821715 L 217.60651861077946 96.09183840460034 L 217.9228665564689 97.17369645029811 L 218.18812073479424 98.17508567308099 L 218.40641198811892 99.09238343556686 L 218.5820156694672 99.92227057895201 L 218.71933836484646 100.66174361449453 L 218.82290424970432 101.3081257720954 L 218.89734111758335 101.85907686002443 L 218.94736611994264 102.3126018947464 L 218.97777125690982 102.66705846489674 L 218.9934086594175 102.92116279870797 L 218.99917570375115 103.0739945095811 L 219 103.125"></path></g></g><g class="plot-annotations"></g><g class="plot-labels"></g><g class="plot-legends"></g></svg>
